<svg width="850" height="428" viewBox="0 0 850 428" fill="none" xmlns="http://www.w3.org/2000/svg">
<rect width="849.105" height="428" rx="16" fill="#F4F4F4"/>
<path d="M0 16C0 7.16345 7.16344 0 16 0H434.19V365H0V16Z" fill="#E6EDF8"/>
<path d="M37.4696 46.72H53.3576V53.92H37.4696V46.72ZM51.2039 46.72H67.0919V53.92H51.2039V46.72ZM64.9383 46.72H80.8263V53.92H64.9383V46.72ZM78.6727 46.72H94.5607V53.92H78.6727V46.72ZM92.4071 46.72H101.431V53.92H92.4071V46.72ZM99.2742 46.72H115.162V53.92H99.2742V46.72ZM113.009 46.72H128.897V53.92H113.009V46.72ZM141.134 46.72H157.022V53.92H141.134V46.72ZM154.868 46.72H170.756V53.92H154.868V46.72ZM168.602 46.72H177.626V53.92H168.602V46.72ZM175.47 46.72H191.358V53.92H175.47V46.72ZM203.595 46.72H219.483V53.92H203.595V46.72ZM217.329 46.72H226.353V53.92H217.329V46.72ZM224.196 46.72H240.084V53.92H224.196V46.72ZM237.93 46.72H246.954V53.92H237.93V46.72ZM244.798 46.72H253.822V53.92H244.798V46.72ZM251.665 46.72H260.689V53.92H251.665V46.72ZM258.532 46.72H274.42V53.92H258.532V46.72ZM272.266 46.72H281.29V53.92H272.266V46.72ZM293.524 46.72H302.548V53.92H293.524V46.72ZM300.391 46.72H316.279V53.92H300.391V46.72ZM314.126 46.72H323.15V53.92H314.126V46.72ZM335.384 46.72H344.408V53.92H335.384V46.72ZM342.251 46.72H358.139V53.92H342.251V46.72ZM355.985 46.72H365.009V53.92H355.985V46.72ZM362.852 46.72H378.74V53.92H362.852V46.72ZM37.4696 75.72H46.4936V82.92H37.4696V75.72ZM44.3367 75.72H60.2247V82.92H44.3367V75.72ZM72.4617 75.72H88.3497V82.92H72.4617V75.72ZM86.1961 75.72H102.084V82.92H86.1961V75.72ZM99.9305 75.72H115.818V82.92H99.9305V75.72ZM113.665 75.72H129.553V82.92H113.665V75.72ZM141.79 75.72H150.814V82.92H141.79V75.72ZM148.657 75.72H164.545V82.92H148.657V75.72ZM162.391 75.72H171.415V82.92H162.391V75.72ZM169.259 75.72H185.147V82.92H169.259V75.72ZM182.993 75.72H192.017V82.92H182.993V75.72ZM189.86 75.72H198.884V82.92H189.86V75.72ZM196.727 75.72H212.615V82.92H196.727V75.72ZM224.852 75.72H233.876V82.92H224.852V75.72ZM231.72 75.72H247.608V82.92H231.72V75.72ZM245.454 75.72H261.342V82.92H245.454V75.72ZM259.188 75.72H275.076V82.92H259.188V75.72ZM272.923 75.72H288.811V82.92H272.923V75.72ZM286.657 75.72H302.545V82.92H286.657V75.72ZM314.782 75.72H330.67V82.92H314.782V75.72ZM328.516 75.72H344.404V82.92H328.516V75.72ZM342.251 75.72H358.139V82.92H342.251V75.72ZM355.985 75.72H371.873V82.92H355.985V75.72ZM369.72 75.72H385.608V82.92H369.72V75.72ZM37.4696 104.72H46.4936V111.92H37.4696V104.72ZM44.3367 104.72H60.2247V111.92H44.3367V104.72ZM58.0711 104.72H73.9591V111.92H58.0711V104.72ZM71.8055 104.72H80.8295V111.92H71.8055V104.72ZM78.6727 104.72H87.6967V111.92H78.6727V104.72ZM99.9305 104.72H108.954V111.92H99.9305V104.72ZM121.188 104.72H137.076V111.92H121.188V104.72ZM134.923 104.72H150.811V111.92H134.923V104.72ZM148.657 104.72H164.545V111.92H148.657V104.72ZM162.391 104.72H178.279V111.92H162.391V104.72ZM176.126 104.72H192.014V111.92H176.126V104.72ZM189.86 104.72H198.884V111.92H189.86V104.72ZM211.118 104.72H220.142V111.92H211.118V104.72ZM217.985 104.72H227.009V111.92H217.985V104.72ZM239.243 104.72H248.267V111.92H239.243V104.72ZM246.11 104.72H255.134V111.92H246.11V104.72ZM267.368 104.72H276.392V111.92H267.368V104.72ZM274.235 104.72H290.123V111.92H274.235V104.72ZM287.97 104.72H303.858V111.92H287.97V104.72ZM301.704 104.72H317.592V111.92H301.704V104.72ZM315.438 104.72H331.326V111.92H315.438V104.72ZM343.563 104.72H352.587V111.92H343.563V104.72ZM350.43 104.72H366.318V111.92H350.43V104.72ZM364.165 104.72H380.053V111.92H364.165V104.72ZM377.899 104.72H386.923V111.92H377.899V104.72ZM384.766 104.72H393.79V111.92H384.766V104.72ZM37.4696 191.72H53.3576V198.92H37.4696V191.72ZM51.2039 191.72H67.0919V198.92H51.2039V191.72ZM64.9383 191.72H73.9623V198.92H64.9383V191.72ZM71.8055 191.72H87.6935V198.92H71.8055V191.72ZM85.5399 191.72H101.428V198.92H85.5399V191.72ZM113.665 191.72H129.553V198.92H113.665V191.72ZM127.399 191.72H143.287V198.92H127.399V191.72ZM141.134 191.72H157.022V198.92H141.134V191.72ZM169.259 191.72H185.147V198.92H169.259V191.72ZM182.993 191.72H198.881V198.92H182.993V191.72ZM196.727 191.72H212.615V198.92H196.727V191.72ZM210.462 191.72H226.35V198.92H210.462V191.72ZM224.196 191.72H233.22V198.92H224.196V191.72ZM231.063 191.72H240.087V198.92H231.063V191.72ZM252.321 191.72H268.209V198.92H252.321V191.72ZM266.055 191.72H281.943V198.92H266.055V191.72ZM279.79 191.72H288.814V198.92H279.79V191.72ZM286.657 191.72H302.545V198.92H286.657V191.72ZM300.391 191.72H316.279V198.92H300.391V191.72ZM328.516 191.72H344.404V198.92H328.516V191.72ZM342.251 191.72H358.139V198.92H342.251V191.72ZM355.985 191.72H371.873V198.92H355.985V191.72ZM369.72 191.72H378.744V198.92H369.72V191.72ZM37.4696 220.72H46.4936V227.92H37.4696V220.72ZM44.3367 220.72H53.3607V227.92H44.3367V220.72Z" fill="black" fill-opacity="0.15"/>
<path d="M737.449 393.72H753.337V400.92H737.449V393.72ZM751.183 393.72H760.207V400.92H751.183V393.72ZM758.05 393.72H773.938V400.92H758.05V393.72ZM771.785 393.72H780.809V400.92H771.785V393.72ZM778.652 393.72H787.676V400.92H778.652V393.72ZM785.519 393.72H794.543V400.92H785.519V393.72ZM792.386 393.72H808.274V400.92H792.386V393.72Z" fill="black" fill-opacity="0.7"/>
<g opacity="0.7">
<path d="M473.689 46.72H489.577V53.92H473.689V46.72ZM487.423 46.72H503.311V53.92H487.423V46.72ZM501.157 46.72H517.045V53.92H501.157V46.72ZM514.892 46.72H530.78V53.92H514.892V46.72ZM528.626 46.72H537.65V53.92H528.626V46.72ZM535.493 46.72H551.381V53.92H535.493V46.72ZM549.228 46.72H565.116V53.92H549.228V46.72ZM639.814 46.72H655.702V53.92H639.814V46.72ZM653.548 46.72H662.572V53.92H653.548V46.72ZM660.415 46.72H676.303V53.92H660.415V46.72ZM674.15 46.72H683.174V53.92H674.15V46.72ZM681.017 46.72H690.041V53.92H681.017V46.72ZM687.884 46.72H696.908V53.92H687.884V46.72ZM694.751 46.72H710.639V53.92H694.751V46.72ZM708.485 46.72H717.509V53.92H708.485V46.72ZM729.743 46.72H738.767V53.92H729.743V46.72ZM736.61 46.72H752.498V53.92H736.61V46.72ZM750.345 46.72H759.369V53.92H750.345V46.72ZM473.689 75.72H482.713V82.92H473.689V75.72ZM480.556 75.72H496.444V82.92H480.556V75.72ZM578.009 75.72H587.033V82.92H578.009V75.72ZM584.876 75.72H600.764V82.92H584.876V75.72ZM598.61 75.72H607.634V82.92H598.61V75.72ZM605.478 75.72H621.366V82.92H605.478V75.72ZM619.212 75.72H628.236V82.92H619.212V75.72ZM626.079 75.72H635.103V82.92H626.079V75.72ZM632.946 75.72H648.834V82.92H632.946V75.72ZM751.001 75.72H766.889V82.92H751.001V75.72ZM764.735 75.72H780.623V82.92H764.735V75.72ZM778.47 75.72H794.358V82.92H778.47V75.72ZM792.204 75.72H808.092V82.92H792.204V75.72ZM805.939 75.72H821.827V82.92H805.939V75.72ZM473.689 104.72H482.713V111.92H473.689V104.72ZM480.556 104.72H496.444V111.92H480.556V104.72ZM494.29 104.72H510.178V111.92H494.29V104.72ZM508.025 104.72H517.049V111.92H508.025V104.72ZM514.892 104.72H523.916V111.92H514.892V104.72ZM536.15 104.72H545.174V111.92H536.15V104.72ZM647.337 104.72H656.361V111.92H647.337V104.72ZM654.204 104.72H663.228V111.92H654.204V104.72ZM675.462 104.72H684.486V111.92H675.462V104.72ZM682.329 104.72H691.353V111.92H682.329V104.72ZM779.782 104.72H788.806V111.92H779.782V104.72ZM786.65 104.72H802.538V111.92H786.65V104.72ZM800.384 104.72H816.272V111.92H800.384V104.72ZM814.118 104.72H823.142V111.92H814.118V104.72ZM820.985 104.72H830.009V111.92H820.985V104.72ZM688.54 191.72H704.428V198.92H688.54V191.72ZM702.275 191.72H718.163V198.92H702.275V191.72ZM716.009 191.72H725.033V198.92H716.009V191.72ZM722.876 191.72H738.764V198.92H722.876V191.72ZM736.61 191.72H752.498V198.92H736.61V191.72ZM473.689 220.72H482.713V227.92H473.689V220.72ZM480.556 220.72H489.58V227.92H480.556V220.72Z" fill="black" fill-opacity="0.2"/>
<path d="M577.353 46.72H593.241V53.92H577.353V46.72ZM591.087 46.72H606.975V53.92H591.087V46.72ZM604.821 46.72H613.845V53.92H604.821V46.72ZM611.689 46.72H627.577V53.92H611.689V46.72ZM508.681 75.72H524.569V82.92H508.681V75.72ZM522.415 75.72H538.303V82.92H522.415V75.72ZM536.15 75.72H552.038V82.92H536.15V75.72ZM549.884 75.72H565.772V82.92H549.884V75.72ZM661.071 75.72H670.095V82.92H661.071V75.72ZM667.939 75.72H683.827V82.92H667.939V75.72ZM681.673 75.72H697.561V82.92H681.673V75.72ZM695.407 75.72H711.295V82.92H695.407V75.72ZM709.142 75.72H725.03V82.92H709.142V75.72ZM722.876 75.72H738.764V82.92H722.876V75.72Z" fill="#FF0000"/>
<path d="M771.603 46.72H780.627V53.92H771.603V46.72ZM778.47 46.72H794.358V53.92H778.47V46.72ZM792.204 46.72H801.228V53.92H792.204V46.72ZM799.071 46.72H814.959V53.92H799.071V46.72ZM473.689 191.72H489.577V198.92H473.689V191.72ZM487.423 191.72H503.311V198.92H487.423V191.72ZM501.157 191.72H510.181V198.92H501.157V191.72ZM508.025 191.72H523.913V198.92H508.025V191.72ZM521.759 191.72H537.647V198.92H521.759V191.72ZM764.735 191.72H780.623V198.92H764.735V191.72ZM778.47 191.72H794.358V198.92H778.47V191.72ZM792.204 191.72H808.092V198.92H792.204V191.72ZM805.939 191.72H814.963V198.92H805.939V191.72Z" fill="#FF9900"/>
<path d="M557.407 104.72H573.295V111.92H557.407V104.72ZM571.142 104.72H587.03V111.92H571.142V104.72ZM584.876 104.72H600.764V111.92H584.876V104.72ZM598.61 104.72H614.498V111.92H598.61V104.72ZM612.345 104.72H628.233V111.92H612.345V104.72ZM626.079 104.72H635.103V111.92H626.079V104.72ZM703.587 104.72H712.611V111.92H703.587V104.72ZM710.454 104.72H726.342V111.92H710.454V104.72ZM724.189 104.72H740.077V111.92H724.189V104.72ZM737.923 104.72H753.811V111.92H737.923V104.72ZM751.657 104.72H767.545V111.92H751.657V104.72Z" fill="#001AFF"/>
<path d="M549.884 191.72H565.772V198.92H549.884V191.72ZM563.618 191.72H579.506V198.92H563.618V191.72ZM577.353 191.72H593.241V198.92H577.353V191.72ZM605.478 191.72H621.366V198.92H605.478V191.72ZM619.212 191.72H635.1V198.92H619.212V191.72ZM632.946 191.72H648.834V198.92H632.946V191.72ZM646.681 191.72H662.569V198.92H646.681V191.72ZM660.415 191.72H669.439V198.92H660.415V191.72ZM667.282 191.72H676.306V198.92H667.282V191.72Z" fill="#0019FF"/>
</g>
<rect opacity="0.7" x="27.3905" y="378" width="35.5062" height="35" rx="4" fill="#FF9900"/>
<rect opacity="0.7" x="78.1136" y="378" width="35.5062" height="35" rx="4" fill="#0019FF"/>
<rect opacity="0.7" x="128.837" y="378" width="35.5062" height="35" rx="4" fill="#FF0000"/>
<rect opacity="0.7" x="179.56" y="378" width="35.5062" height="35" rx="4" fill="#43FF56"/>
<rect opacity="0.7" x="230.283" y="378" width="35.5062" height="35" rx="4" fill="#00D1FF"/>
<rect opacity="0.7" x="281.006" y="378" width="35.5062" height="35" rx="4" fill="black"/>
</svg>
